<svg id="Layer_1" data-name="Layer 1" xmlns="http://www.w3.org/2000/svg" viewBox="0 0 85 52.98"><defs><style>.cls-1{fill:#fff;}.cls-2{fill:#ff6b0b;}</style></defs><path class="cls-1" d="M5.14,54h-1A4.14,4.14,0,0,1,0,49.91V5.2A4.13,4.13,0,0,1,4.13,1.06h47a4.22,4.22,0,0,1,4.13,4.23V49.9A4.14,4.14,0,0,1,51.1,54H30a3.85,3.85,0,0,1-3.72-3.12,9.29,9.29,0,0,0-18,.44A3,3,0,0,1,5.14,54Zm-1-49.83A1,1,0,0,0,3,5.2V49.9A1.09,1.09,0,0,0,4.13,51h1c0-.05.13-.27.14-.32a12.33,12.33,0,0,1,23.93-.46c.15.74.68.78.79.78H51.1a1.09,1.09,0,0,0,1.08-1.08V5.29A1.09,1.09,0,0,0,51.1,4.21Zm80.8,31.62a29.58,29.58,0,0,0-.29-3.12,14,14,0,0,0-1.09-2.64L76.26,16.48a6.32,6.32,0,0,0-4.56-2.71H60.78a2.61,2.61,0,0,0-2.6,2.61V49.9a2.61,2.61,0,0,0,2.6,2.61h.65a1.71,1.71,0,0,0,1.3-1.31A9,9,0,0,1,80.16,51a2.28,2.28,0,0,0,2.23,1.56A2.61,2.61,0,0,0,85,49.9Zm-6.6-3.51h-13a2,2,0,0,1-2-2V20.14a2,2,0,0,1,2-2h4.37a5.63,5.63,0,0,1,4.63,3l5.06,9.44A1.09,1.09,0,0,1,78.33,32.32Z" transform="translate(0 -1.06)"/><path class="cls-2" d="M4.13,4.21A1,1,0,0,0,3,5.2V49.9A1.09,1.09,0,0,0,4.13,51h1c0-.05.13-.27.14-.32a12.33,12.33,0,0,1,23.93-.46c.15.74.68.78.79.78H51.1a1.09,1.09,0,0,0,1.08-1.08V5.29A1.09,1.09,0,0,0,51.1,4.21Z" transform="translate(0 -1.06)"/></svg>